<svg width="15" height="19" viewBox="0 0 15 19" fill="none" xmlns="http://www.w3.org/2000/svg">
<path d="M3.23828 2.16762C5.56911 4.74679 9.41328 -0.819043 11.6883 1.20096C12.9966 2.36262 12.5824 4.92929 10.8841 6.60096" stroke="#D66355" stroke-width="1.5" stroke-linecap="round"/>
<path d="M8.90784 10.7375C8.92284 10.4584 9.00034 9.94835 8.577 9.56085C8.41523 9.41957 8.2264 9.31268 8.02201 9.24669C7.14867 8.93835 6.07534 9.96919 6.83451 10.9134C7.24284 11.42 7.557 11.5759 7.52784 12.1517C7.507 12.5567 7.10867 12.98 6.58451 13.1417C6.12867 13.2817 5.62617 13.0959 5.30867 12.7409C4.92034 12.3075 4.95867 11.8984 4.95617 11.72M8.577 9.56169L9.05534 9.08252M5.34284 12.795L4.88867 13.2492" stroke="#D66355" stroke-width="1.5" stroke-linecap="round" stroke-linejoin="round"/>
<path d="M12.6441 4.61184C13.4149 4.76017 13.5882 5.24684 13.8182 6.5985C14.0257 7.81517 14.0841 9.276 14.0841 9.8985C14.063 10.127 13.9699 10.343 13.8182 10.5152C12.2057 12.2052 9.00491 15.3968 7.38991 16.9818C6.75658 17.5485 5.79991 17.561 5.12658 17.041C3.74908 15.8018 2.42575 14.401 1.12908 13.1368C0.608245 12.4652 0.620745 11.5118 1.18741 10.8793C2.89658 9.10684 5.98908 6.07267 7.73408 4.396C7.90908 4.246 8.12408 4.15267 8.35324 4.13184C8.74491 4.13184 9.41658 4.18434 10.0716 4.22184" stroke="#D66355" stroke-width="1.5" stroke-linecap="round"/>
</svg>
