<svg width="20" height="20" viewBox="0 0 20 20" fill="none" xmlns="http://www.w3.org/2000/svg">
<path d="M10 2C5.57861 2 2 5.578 2 10C2 11.4032 2.36597 12.7737 3.06091 13.9824L2.03015 17.1833C1.95825 17.4065 2.01733 17.6511 2.18311 17.8169C2.34729 17.9811 2.59131 18.0424 2.81665 17.9698L6.01758 16.9391C7.22632 17.634 8.5968 18 10 18C14.4214 18 18 14.422 18 10C18 5.57861 14.422 2 10 2ZM10 16.75C8.73254 16.75 7.49707 16.3964 6.42712 15.7273C6.27319 15.6311 6.08203 15.6051 5.90417 15.6624L3.59351 16.4065L4.33765 14.0958C4.39404 13.9205 4.37024 13.7291 4.27258 13.5729C3.60364 12.5029 3.25 11.2675 3.25 10C3.25 6.27808 6.27808 3.25 10 3.25C13.7219 3.25 16.75 6.27808 16.75 10C16.75 13.7219 13.7219 16.75 10 16.75ZM10.7812 10C10.7812 10.4314 10.4315 10.7812 10 10.7812C9.56848 10.7812 9.21875 10.4314 9.21875 10C9.21875 9.56848 9.56848 9.21875 10 9.21875C10.4315 9.21875 10.7812 9.56848 10.7812 10ZM13.9062 10C13.9062 10.4314 13.5565 10.7812 13.125 10.7812C12.6935 10.7812 12.3438 10.4314 12.3438 10C12.3438 9.56848 12.6935 9.21875 13.125 9.21875C13.5565 9.21875 13.9062 9.56848 13.9062 10ZM7.65625 10C7.65625 10.4314 7.30652 10.7812 6.875 10.7812C6.4436 10.7812 6.09375 10.4314 6.09375 10C6.09375 9.56848 6.4436 9.21875 6.875 9.21875C7.30652 9.21875 7.65625 9.56848 7.65625 10Z" fill="#4F4F4F"/>
</svg>
