<svg width="17" height="14" viewBox="0 0 17 14" fill="none" xmlns="http://www.w3.org/2000/svg">
<path d="M9.16756 3.375V0.833333C9.16756 0.61232 9.25536 0.400358 9.41164 0.244078C9.56792 0.0877973 9.77988 0 10.0009 0C10.2195 0.000920518 10.429 0.0877132 10.5842 0.241667L16.4176 6.075C16.4957 6.15247 16.5577 6.24464 16.6 6.34619C16.6423 6.44774 16.6641 6.55666 16.6641 6.66667C16.6641 6.77668 16.6423 6.8856 16.6 6.98715C16.5577 7.0887 16.4957 7.18086 16.4176 7.25833L10.5842 13.0917C10.4672 13.2063 10.3191 13.284 10.1582 13.3149C9.99731 13.3458 9.8309 13.3286 9.67974 13.2655C9.52857 13.2024 9.39937 13.0961 9.30828 12.9599C9.21719 12.8238 9.16824 12.6638 9.16756 12.5V9.91667H8.45923C7.14263 9.89703 5.83753 10.1641 4.63451 10.6995C3.43149 11.2348 2.35937 12.0255 1.49257 13.0167C1.3881 13.1557 1.24275 13.2586 1.07687 13.3109C0.910989 13.3632 0.732901 13.3623 0.567565 13.3083C0.39931 13.2516 0.253592 13.1425 0.151658 12.9971C0.0497235 12.8517 -0.00309715 12.6775 0.000897805 12.5C0.000897805 4.9 6.73423 3.6 9.16756 3.375ZM8.45923 8.23333C9.01658 8.23225 9.57338 8.26844 10.1259 8.34167C10.3232 8.3716 10.5032 8.47133 10.6332 8.62272C10.7631 8.77411 10.8345 8.96713 10.8342 9.16667V10.4917L14.6509 6.66667L10.8342 2.84167V4.16667C10.8342 4.38768 10.7464 4.59964 10.5902 4.75592C10.4339 4.9122 10.2219 5 10.0009 5C9.24256 5 3.24256 5.16667 1.94256 10.3583C3.82948 8.96713 6.11492 8.22188 8.45923 8.23333Z" fill="#4F4F4F"/>
</svg>
