<svg width="20" height="20" viewBox="0 0 20 20" fill="none" xmlns="http://www.w3.org/2000/svg">
<path d="M8.33268 3.33301L6.66602 4.99967" stroke="#D66355" stroke-width="1.66667" stroke-linecap="round" stroke-linejoin="round"/>
<path d="M14.166 15.833V17.4997" stroke="#D66355" stroke-width="1.66667" stroke-linecap="round" stroke-linejoin="round"/>
<path d="M1.66602 10H18.3327" stroke="#D66355" stroke-width="1.66667" stroke-linecap="round" stroke-linejoin="round"/>
<path d="M5.83398 15.833V17.4997" stroke="#D66355" stroke-width="1.66667" stroke-linecap="round" stroke-linejoin="round"/>
<path d="M7.50065 4.16683L6.35148 3.01766C6.1105 2.77555 5.80451 2.60846 5.47055 2.53661C5.13659 2.46476 4.78896 2.49122 4.46973 2.6128C4.15049 2.73437 3.87333 2.94585 3.67176 3.22165C3.4702 3.49745 3.35288 3.82575 3.33398 4.16683V14.1668C3.33398 14.6089 3.50958 15.0328 3.82214 15.3453C4.1347 15.6579 4.55862 15.8335 5.00065 15.8335H15.0007C15.4427 15.8335 15.8666 15.6579 16.1792 15.3453C16.4917 15.0328 16.6673 14.6089 16.6673 14.1668V10.0002" stroke="#D66355" stroke-width="1.66667" stroke-linecap="round" stroke-linejoin="round"/>
</svg>
